<svg width="1001" height="636" viewBox="0 0 1001 636" fill="none" xmlns="http://www.w3.org/2000/svg">
<line x1="93.5" y1="2.18557e-08" x2="93.5" y2="636" stroke="#E5E5E5"/>
<line x1="274.9" y1="2.18557e-08" x2="274.9" y2="636" stroke="#E5E5E5"/>
<line x1="456.3" y1="2.18557e-08" x2="456.3" y2="636" stroke="#E5E5E5"/>
<line x1="637.7" y1="2.18557e-08" x2="637.7" y2="636" stroke="#E5E5E5"/>
<line x1="819.1" y1="2.18557e-08" x2="819.1" y2="636" stroke="#E5E5E5"/>
<line x1="1000.5" y1="2.18557e-08" x2="1000.5" y2="636" stroke="#E5E5E5"/>
<path d="M10.8156 46.182C12.5516 45.37 13.8723 44.5813 14.7776 43.816C15.683 43.0413 16.3456 42.2107 16.7656 41.324H17.7736C18.1843 42.1827 18.8703 43.004 19.8316 43.788C20.8023 44.5627 22.1743 45.3653 23.9476 46.196L23.4996 47.008C21.6143 46.1027 20.177 45.23 19.1876 44.39C18.1983 43.55 17.573 42.682 17.3116 41.786H17.2136C16.9523 42.7007 16.3503 43.578 15.4076 44.418C14.465 45.258 13.0883 46.1213 11.2776 47.008L10.8156 46.182ZM20.4616 46.266H14.2876V45.454H20.4616V46.266ZM15.8836 54.036V48.87H12.1036V48.058H22.0436V51.894C22.0436 52.2487 21.969 52.4913 21.8196 52.622C21.6703 52.7433 21.4136 52.804 21.0496 52.804H18.8516L18.6136 51.992H21.1476V48.87H16.8076V54.036H15.8836ZM29.2396 45.16H31.6476V45.972H29.2396V47.568H29.3096L29.5336 47.372C29.599 47.3067 29.669 47.274 29.7436 47.274C29.8276 47.274 29.8976 47.3207 29.9536 47.414L31.5636 49.738L30.9196 50.312L29.3516 47.918C29.3236 47.8807 29.2956 47.8667 29.2676 47.876C29.249 47.8853 29.2396 47.9133 29.2396 47.96V54.106H28.4136V47.624H28.3156C28.2783 48.2493 28.0916 48.884 27.7556 49.528C27.4196 50.172 26.897 50.872 26.1876 51.628L25.6136 50.9C26.463 50.004 27.1023 49.1593 27.5316 48.366C27.961 47.5727 28.213 46.7747 28.2876 45.972H25.6976V45.16H28.4136V43.046C27.695 43.2047 26.9156 43.3353 26.0756 43.438L25.8936 42.668C26.7616 42.5653 27.6576 42.402 28.5816 42.178C29.515 41.954 30.3036 41.688 30.9476 41.38L31.3676 42.08C30.817 42.36 30.1076 42.6167 29.2396 42.85V45.16ZM32.3476 53.98V42.388H37.9336V53.98H37.0236V52.846H33.2436V53.98H32.3476ZM33.2436 43.214V52.034H37.0236V43.214H33.2436ZM44.2056 53.182C43.5056 53.182 42.899 53.0233 42.3856 52.706C41.8723 52.3887 41.4756 51.936 41.1956 51.348C40.925 50.7507 40.7896 50.0553 40.7896 49.262C40.7896 48.3007 40.967 47.3953 41.3216 46.546C41.6856 45.6873 42.1476 44.936 42.7076 44.292C43.2676 43.648 43.851 43.13 44.4576 42.738H45.9696C45.195 43.3073 44.551 43.8487 44.0376 44.362C43.5336 44.866 43.1136 45.4167 42.7776 46.014C42.4416 46.6113 42.185 47.2973 42.0076 48.072L42.0776 48.1C42.647 47.12 43.473 46.63 44.5556 46.63C45.1436 46.63 45.6663 46.7607 46.1236 47.022C46.581 47.274 46.9403 47.6427 47.2016 48.128C47.463 48.604 47.5936 49.1593 47.5936 49.794C47.5936 50.4567 47.449 51.0447 47.1596 51.558C46.8796 52.0713 46.483 52.4727 45.9696 52.762C45.4656 53.042 44.8776 53.182 44.2056 53.182ZM44.1916 52.16C44.8823 52.16 45.419 51.9687 45.8016 51.586C46.1843 51.2033 46.3756 50.662 46.3756 49.962V49.822C46.3756 49.122 46.1843 48.5807 45.8016 48.198C45.419 47.8153 44.8823 47.624 44.1916 47.624C43.4916 47.624 42.9503 47.8153 42.5676 48.198C42.1943 48.5807 42.0076 49.122 42.0076 49.822V49.962C42.0076 50.662 42.199 51.2033 42.5816 51.586C42.9643 51.9687 43.501 52.16 44.1916 52.16ZM62.516 49.962V50.788H57.406V54.05H56.496V50.788H50.084V49.962H52.282V46.406H56.496V43.914H53.248C52.5853 45.0807 51.7453 46.1167 50.728 47.022L50.07 46.336C51.6847 44.908 52.7813 43.2467 53.36 41.352L54.27 41.534C54.1207 42.0473 53.9247 42.5653 53.682 43.088H62.39V43.914H57.406V46.406H61.928V47.232H57.406V49.962H62.516ZM53.192 47.232V49.962H56.496V47.232H53.192ZM71.924 42.36H77.342V43.144H66.604V46.154C66.604 49.5513 66.1607 52.1413 65.274 53.924L64.546 53.28C64.9473 52.44 65.2413 51.4273 65.428 50.242C65.6147 49.0567 65.708 47.6707 65.708 46.084V42.36H70.944V41.24H71.924V42.36ZM74.066 43.704H74.934V45.132H77.3V45.888H74.934V48.03H69.152V45.888H67.108V45.132H69.152V43.704H70.02V45.132H74.066V43.704ZM70.02 47.302H74.066V45.86H70.02V47.302ZM76.012 49.626C75.368 50.662 74.3647 51.5393 73.002 52.258C74.1313 52.678 75.5407 53.014 77.23 53.266L77.006 54.05C75.0927 53.7887 73.436 53.35 72.036 52.734C70.524 53.3687 68.7833 53.812 66.814 54.064L66.59 53.252C68.1953 53.0653 69.6793 52.7293 71.042 52.244C70.258 51.8147 69.4507 51.25 68.62 50.55L69.18 49.976C70.0947 50.76 71.0373 51.3807 72.008 51.838C73.2587 51.2593 74.206 50.5687 74.85 49.766H67.472V49.01H76.012V49.626Z" fill="#222222"/>
<rect x="93" y="28" width="907" height="40" fill="#4BBC37"/>
<path d="M951.052 51.472C952.076 50.6187 952.892 49.9093 953.5 49.344C954.108 48.768 954.615 48.1707 955.02 47.552C955.425 46.9333 955.628 46.3253 955.628 45.728C955.628 45.184 955.5 44.7573 955.244 44.448C954.988 44.1387 954.593 43.984 954.06 43.984C953.527 43.984 953.116 44.1653 952.828 44.528C952.54 44.88 952.391 45.3653 952.38 45.984H950.204C950.247 44.704 950.625 43.7333 951.34 43.072C952.065 42.4107 952.983 42.08 954.092 42.08C955.308 42.08 956.241 42.4053 956.892 43.056C957.543 43.696 957.868 44.544 957.868 45.6C957.868 46.432 957.644 47.2267 957.196 47.984C956.748 48.7413 956.236 49.4027 955.66 49.968C955.084 50.5227 954.332 51.1947 953.404 51.984H958.124V53.84H950.22V52.176L951.052 51.472ZM960.368 45.408C960.421 44.3413 960.794 43.52 961.488 42.944C962.192 42.3573 963.114 42.064 964.256 42.064C965.034 42.064 965.701 42.2027 966.256 42.48C966.81 42.7467 967.226 43.1147 967.504 43.584C967.792 44.0427 967.936 44.5653 967.936 45.152C967.936 45.824 967.76 46.3947 967.408 46.864C967.066 47.3227 966.656 47.632 966.176 47.792V47.856C966.794 48.048 967.274 48.3893 967.616 48.88C967.968 49.3707 968.144 50 968.144 50.768C968.144 51.408 967.994 51.9787 967.696 52.48C967.408 52.9813 966.976 53.376 966.4 53.664C965.834 53.9413 965.152 54.08 964.352 54.08C963.146 54.08 962.165 53.776 961.408 53.168C960.65 52.56 960.25 51.664 960.208 50.48H962.384C962.405 51.0027 962.581 51.424 962.912 51.744C963.253 52.0533 963.717 52.208 964.304 52.208C964.848 52.208 965.264 52.0587 965.552 51.76C965.85 51.4507 966 51.056 966 50.576C966 49.936 965.797 49.4773 965.392 49.2C964.986 48.9227 964.357 48.784 963.504 48.784H963.04V46.944H963.504C965.018 46.944 965.776 46.4373 965.776 45.424C965.776 44.9653 965.637 44.608 965.36 44.352C965.093 44.096 964.704 43.968 964.192 43.968C963.69 43.968 963.301 44.1067 963.024 44.384C962.757 44.6507 962.602 44.992 962.56 45.408H960.368ZM970.714 48.016C970.714 46.1707 971.044 44.7253 971.706 43.68C972.378 42.6347 973.487 42.112 975.034 42.112C976.58 42.112 977.684 42.6347 978.346 43.68C979.018 44.7253 979.354 46.1707 979.354 48.016C979.354 49.872 979.018 51.328 978.346 52.384C977.684 53.44 976.58 53.968 975.034 53.968C973.487 53.968 972.378 53.44 971.706 52.384C971.044 51.328 970.714 49.872 970.714 48.016ZM977.146 48.016C977.146 47.2267 977.092 46.5653 976.986 46.032C976.89 45.488 976.687 45.0453 976.378 44.704C976.079 44.3627 975.631 44.192 975.034 44.192C974.436 44.192 973.983 44.3627 973.674 44.704C973.375 45.0453 973.172 45.488 973.066 46.032C972.97 46.5653 972.922 47.2267 972.922 48.016C972.922 48.8267 972.97 49.5093 973.066 50.064C973.162 50.608 973.364 51.0507 973.674 51.392C973.983 51.7227 974.436 51.888 975.034 51.888C975.631 51.888 976.084 51.7227 976.394 51.392C976.703 51.0507 976.906 50.608 977.002 50.064C977.098 49.5093 977.146 48.8267 977.146 48.016ZM981.857 48.016C981.857 46.1707 982.188 44.7253 982.849 43.68C983.521 42.6347 984.631 42.112 986.177 42.112C987.724 42.112 988.828 42.6347 989.489 43.68C990.161 44.7253 990.497 46.1707 990.497 48.016C990.497 49.872 990.161 51.328 989.489 52.384C988.828 53.44 987.724 53.968 986.177 53.968C984.631 53.968 983.521 53.44 982.849 52.384C982.188 51.328 981.857 49.872 981.857 48.016ZM988.289 48.016C988.289 47.2267 988.236 46.5653 988.129 46.032C988.033 45.488 987.831 45.0453 987.521 44.704C987.223 44.3627 986.775 44.192 986.177 44.192C985.58 44.192 985.127 44.3627 984.817 44.704C984.519 45.0453 984.316 45.488 984.209 46.032C984.113 46.5653 984.065 47.2267 984.065 48.016C984.065 48.8267 984.113 49.5093 984.209 50.064C984.305 50.608 984.508 51.0507 984.817 51.392C985.127 51.7227 985.58 51.888 986.177 51.888C986.775 51.888 987.228 51.7227 987.537 51.392C987.847 51.0507 988.049 50.608 988.145 50.064C988.241 49.5093 988.289 48.8267 988.289 48.016Z" fill="white"/>
<path d="M10.8156 106.182C12.5516 105.37 13.8723 104.581 14.7776 103.816C15.683 103.041 16.3456 102.211 16.7656 101.324H17.7736C18.1843 102.183 18.8703 103.004 19.8316 103.788C20.8023 104.563 22.1743 105.365 23.9476 106.196L23.4996 107.008C21.6143 106.103 20.177 105.23 19.1876 104.39C18.1983 103.55 17.573 102.682 17.3116 101.786H17.2136C16.9523 102.701 16.3503 103.578 15.4076 104.418C14.465 105.258 13.0883 106.121 11.2776 107.008L10.8156 106.182ZM20.4616 106.266H14.2876V105.454H20.4616V106.266ZM15.8836 114.036V108.87H12.1036V108.058H22.0436V111.894C22.0436 112.249 21.969 112.491 21.8196 112.622C21.6703 112.743 21.4136 112.804 21.0496 112.804H18.8516L18.6136 111.992H21.1476V108.87H16.8076V114.036H15.8836ZM29.2396 105.16H31.6476V105.972H29.2396V107.568H29.3096L29.5336 107.372C29.599 107.307 29.669 107.274 29.7436 107.274C29.8276 107.274 29.8976 107.321 29.9536 107.414L31.5636 109.738L30.9196 110.312L29.3516 107.918C29.3236 107.881 29.2956 107.867 29.2676 107.876C29.249 107.885 29.2396 107.913 29.2396 107.96V114.106H28.4136V107.624H28.3156C28.2783 108.249 28.0916 108.884 27.7556 109.528C27.4196 110.172 26.897 110.872 26.1876 111.628L25.6136 110.9C26.463 110.004 27.1023 109.159 27.5316 108.366C27.961 107.573 28.213 106.775 28.2876 105.972H25.6976V105.16H28.4136V103.046C27.695 103.205 26.9156 103.335 26.0756 103.438L25.8936 102.668C26.7616 102.565 27.6576 102.402 28.5816 102.178C29.515 101.954 30.3036 101.688 30.9476 101.38L31.3676 102.08C30.817 102.36 30.1076 102.617 29.2396 102.85V105.16ZM32.3476 113.98V102.388H37.9336V113.98H37.0236V112.846H33.2436V113.98H32.3476ZM33.2436 103.214V112.034H37.0236V103.214H33.2436ZM47.0896 102.738V103.774H42.5816L42.2876 107.75H42.3856C42.6563 107.367 42.9503 107.083 43.2676 106.896C43.585 106.709 43.9956 106.616 44.4996 106.616C45.0876 106.616 45.6103 106.747 46.0676 107.008C46.5343 107.26 46.8983 107.629 47.1596 108.114C47.421 108.59 47.5516 109.15 47.5516 109.794C47.5516 110.457 47.4116 111.045 47.1316 111.558C46.861 112.071 46.4643 112.473 45.9416 112.762C45.4283 113.042 44.8216 113.182 44.1216 113.182C43.3563 113.182 42.7263 113.028 42.2316 112.72C41.737 112.403 41.2983 111.978 40.9156 111.446L41.7976 110.774C42.0963 111.231 42.4136 111.572 42.7496 111.796C43.0856 112.02 43.543 112.132 44.1216 112.132C44.831 112.132 45.3723 111.945 45.7456 111.572C46.119 111.189 46.3056 110.653 46.3056 109.962V109.794C46.3056 109.094 46.119 108.557 45.7456 108.184C45.3816 107.811 44.8403 107.624 44.1216 107.624C43.683 107.624 43.3236 107.703 43.0436 107.862C42.773 108.011 42.5116 108.231 42.2596 108.52L41.2656 108.366L41.6296 102.738H47.0896ZM62.516 109.962V110.788H57.406V114.05H56.496V110.788H50.084V109.962H52.282V106.406H56.496V103.914H53.248C52.5853 105.081 51.7453 106.117 50.728 107.022L50.07 106.336C51.6847 104.908 52.7813 103.247 53.36 101.352L54.27 101.534C54.1207 102.047 53.9247 102.565 53.682 103.088H62.39V103.914H57.406V106.406H61.928V107.232H57.406V109.962H62.516ZM53.192 107.232V109.962H56.496V107.232H53.192ZM71.924 102.36H77.342V103.144H66.604V106.154C66.604 109.551 66.1607 112.141 65.274 113.924L64.546 113.28C64.9473 112.44 65.2413 111.427 65.428 110.242C65.6147 109.057 65.708 107.671 65.708 106.084V102.36H70.944V101.24H71.924V102.36ZM74.066 103.704H74.934V105.132H77.3V105.888H74.934V108.03H69.152V105.888H67.108V105.132H69.152V103.704H70.02V105.132H74.066V103.704ZM70.02 107.302H74.066V105.86H70.02V107.302ZM76.012 109.626C75.368 110.662 74.3647 111.539 73.002 112.258C74.1313 112.678 75.5407 113.014 77.23 113.266L77.006 114.05C75.0927 113.789 73.436 113.35 72.036 112.734C70.524 113.369 68.7833 113.812 66.814 114.064L66.59 113.252C68.1953 113.065 69.6793 112.729 71.042 112.244C70.258 111.815 69.4507 111.25 68.62 110.55L69.18 109.976C70.0947 110.76 71.0373 111.381 72.008 111.838C73.2587 111.259 74.206 110.569 74.85 109.766H67.472V109.01H76.012V109.626Z" fill="#222222"/>
<rect x="93" y="88" width="735" height="40" fill="#4BBC37"/>
<path d="M767.552 111.472C768.576 110.619 769.392 109.909 770 109.344C770.608 108.768 771.115 108.171 771.52 107.552C771.925 106.933 772.128 106.325 772.128 105.728C772.128 105.184 772 104.757 771.744 104.448C771.488 104.139 771.093 103.984 770.56 103.984C770.027 103.984 769.616 104.165 769.328 104.528C769.04 104.88 768.891 105.365 768.88 105.984H766.704C766.747 104.704 767.125 103.733 767.84 103.072C768.565 102.411 769.483 102.08 770.592 102.08C771.808 102.08 772.741 102.405 773.392 103.056C774.043 103.696 774.368 104.544 774.368 105.6C774.368 106.432 774.144 107.227 773.696 107.984C773.248 108.741 772.736 109.403 772.16 109.968C771.584 110.523 770.832 111.195 769.904 111.984H774.624V113.84H766.72V112.176L767.552 111.472ZM776.836 108.016C776.836 106.171 777.166 104.725 777.828 103.68C778.5 102.635 779.609 102.112 781.156 102.112C782.702 102.112 783.806 102.635 784.468 103.68C785.14 104.725 785.476 106.171 785.476 108.016C785.476 109.872 785.14 111.328 784.468 112.384C783.806 113.44 782.702 113.968 781.156 113.968C779.609 113.968 778.5 113.44 777.828 112.384C777.166 111.328 776.836 109.872 776.836 108.016ZM783.268 108.016C783.268 107.227 783.214 106.565 783.108 106.032C783.012 105.488 782.809 105.045 782.5 104.704C782.201 104.363 781.753 104.192 781.156 104.192C780.558 104.192 780.105 104.363 779.796 104.704C779.497 105.045 779.294 105.488 779.188 106.032C779.092 106.565 779.044 107.227 779.044 108.016C779.044 108.827 779.092 109.509 779.188 110.064C779.284 110.608 779.486 111.051 779.796 111.392C780.105 111.723 780.558 111.888 781.156 111.888C781.753 111.888 782.206 111.723 782.516 111.392C782.825 111.051 783.028 110.608 783.124 110.064C783.22 109.509 783.268 108.827 783.268 108.016ZM787.979 108.016C787.979 106.171 788.31 104.725 788.971 103.68C789.643 102.635 790.753 102.112 792.299 102.112C793.846 102.112 794.95 102.635 795.611 103.68C796.283 104.725 796.619 106.171 796.619 108.016C796.619 109.872 796.283 111.328 795.611 112.384C794.95 113.44 793.846 113.968 792.299 113.968C790.753 113.968 789.643 113.44 788.971 112.384C788.31 111.328 787.979 109.872 787.979 108.016ZM794.411 108.016C794.411 107.227 794.358 106.565 794.251 106.032C794.155 105.488 793.953 105.045 793.643 104.704C793.345 104.363 792.897 104.192 792.299 104.192C791.702 104.192 791.249 104.363 790.939 104.704C790.641 105.045 790.438 105.488 790.331 106.032C790.235 106.565 790.187 107.227 790.187 108.016C790.187 108.827 790.235 109.509 790.331 110.064C790.427 110.608 790.63 111.051 790.939 111.392C791.249 111.723 791.702 111.888 792.299 111.888C792.897 111.888 793.35 111.723 793.659 111.392C793.969 111.051 794.171 110.608 794.267 110.064C794.363 109.509 794.411 108.827 794.411 108.016ZM799.827 111.472C800.851 110.619 801.667 109.909 802.275 109.344C802.883 108.768 803.39 108.171 803.795 107.552C804.2 106.933 804.403 106.325 804.403 105.728C804.403 105.184 804.275 104.757 804.019 104.448C803.763 104.139 803.368 103.984 802.835 103.984C802.302 103.984 801.891 104.165 801.603 104.528C801.315 104.88 801.166 105.365 801.155 105.984H798.979C799.022 104.704 799.4 103.733 800.115 103.072C800.84 102.411 801.758 102.08 802.867 102.08C804.083 102.08 805.016 102.405 805.667 103.056C806.318 103.696 806.643 104.544 806.643 105.6C806.643 106.432 806.419 107.227 805.971 107.984C805.523 108.741 805.011 109.403 804.435 109.968C803.859 110.523 803.107 111.195 802.179 111.984H806.899V113.84H798.995V112.176L799.827 111.472Z" fill="white"/>
<path d="M10.8156 166.182C12.5516 165.37 13.8723 164.581 14.7776 163.816C15.683 163.041 16.3456 162.211 16.7656 161.324H17.7736C18.1843 162.183 18.8703 163.004 19.8316 163.788C20.8023 164.563 22.1743 165.365 23.9476 166.196L23.4996 167.008C21.6143 166.103 20.177 165.23 19.1876 164.39C18.1983 163.55 17.573 162.682 17.3116 161.786H17.2136C16.9523 162.701 16.3503 163.578 15.4076 164.418C14.465 165.258 13.0883 166.121 11.2776 167.008L10.8156 166.182ZM20.4616 166.266H14.2876V165.454H20.4616V166.266ZM15.8836 174.036V168.87H12.1036V168.058H22.0436V171.894C22.0436 172.249 21.969 172.491 21.8196 172.622C21.6703 172.743 21.4136 172.804 21.0496 172.804H18.8516L18.6136 171.992H21.1476V168.87H16.8076V174.036H15.8836ZM29.2396 165.16H31.6476V165.972H29.2396V167.568H29.3096L29.5336 167.372C29.599 167.307 29.669 167.274 29.7436 167.274C29.8276 167.274 29.8976 167.321 29.9536 167.414L31.5636 169.738L30.9196 170.312L29.3516 167.918C29.3236 167.881 29.2956 167.867 29.2676 167.876C29.249 167.885 29.2396 167.913 29.2396 167.96V174.106H28.4136V167.624H28.3156C28.2783 168.249 28.0916 168.884 27.7556 169.528C27.4196 170.172 26.897 170.872 26.1876 171.628L25.6136 170.9C26.463 170.004 27.1023 169.159 27.5316 168.366C27.961 167.573 28.213 166.775 28.2876 165.972H25.6976V165.16H28.4136V163.046C27.695 163.205 26.9156 163.335 26.0756 163.438L25.8936 162.668C26.7616 162.565 27.6576 162.402 28.5816 162.178C29.515 161.954 30.3036 161.688 30.9476 161.38L31.3676 162.08C30.817 162.36 30.1076 162.617 29.2396 162.85V165.16ZM32.3476 173.98V162.388H37.9336V173.98H37.0236V172.846H33.2436V173.98H32.3476ZM33.2436 163.214V172.034H37.0236V163.214H33.2436ZM46.4456 170.97V173H45.3256V170.97H40.3416V169.934L44.6956 162.738H46.4456V169.99H47.9576V170.97H46.4456ZM45.3256 163.648H45.2556L41.4476 169.99H45.3256V163.648ZM62.516 169.962V170.788H57.406V174.05H56.496V170.788H50.084V169.962H52.282V166.406H56.496V163.914H53.248C52.5853 165.081 51.7453 166.117 50.728 167.022L50.07 166.336C51.6847 164.908 52.7813 163.247 53.36 161.352L54.27 161.534C54.1207 162.047 53.9247 162.565 53.682 163.088H62.39V163.914H57.406V166.406H61.928V167.232H57.406V169.962H62.516ZM53.192 167.232V169.962H56.496V167.232H53.192ZM71.924 162.36H77.342V163.144H66.604V166.154C66.604 169.551 66.1607 172.141 65.274 173.924L64.546 173.28C64.9473 172.44 65.2413 171.427 65.428 170.242C65.6147 169.057 65.708 167.671 65.708 166.084V162.36H70.944V161.24H71.924V162.36ZM74.066 163.704H74.934V165.132H77.3V165.888H74.934V168.03H69.152V165.888H67.108V165.132H69.152V163.704H70.02V165.132H74.066V163.704ZM70.02 167.302H74.066V165.86H70.02V167.302ZM76.012 169.626C75.368 170.662 74.3647 171.539 73.002 172.258C74.1313 172.678 75.5407 173.014 77.23 173.266L77.006 174.05C75.0927 173.789 73.436 173.35 72.036 172.734C70.524 173.369 68.7833 173.812 66.814 174.064L66.59 173.252C68.1953 173.065 69.6793 172.729 71.042 172.244C70.258 171.815 69.4507 171.25 68.62 170.55L69.18 169.976C70.0947 170.76 71.0373 171.381 72.008 171.838C73.2587 171.259 74.206 170.569 74.85 169.766H67.472V169.01H76.012V169.626Z" fill="#222222"/>
<rect x="93" y="148" width="489" height="40" fill="#4BBC37"/>
<path d="M525.576 164.4V162.336H529.432V174H527.128V164.4H525.576ZM532.477 165.408C532.53 164.341 532.904 163.52 533.597 162.944C534.301 162.357 535.224 162.064 536.365 162.064C537.144 162.064 537.81 162.203 538.365 162.48C538.92 162.747 539.336 163.115 539.613 163.584C539.901 164.043 540.045 164.565 540.045 165.152C540.045 165.824 539.869 166.395 539.517 166.864C539.176 167.323 538.765 167.632 538.285 167.792V167.856C538.904 168.048 539.384 168.389 539.725 168.88C540.077 169.371 540.253 170 540.253 170.768C540.253 171.408 540.104 171.979 539.805 172.48C539.517 172.981 539.085 173.376 538.509 173.664C537.944 173.941 537.261 174.08 536.461 174.08C535.256 174.08 534.274 173.776 533.517 173.168C532.76 172.56 532.36 171.664 532.317 170.48H534.493C534.514 171.003 534.69 171.424 535.021 171.744C535.362 172.053 535.826 172.208 536.413 172.208C536.957 172.208 537.373 172.059 537.661 171.76C537.96 171.451 538.109 171.056 538.109 170.576C538.109 169.936 537.906 169.477 537.501 169.2C537.096 168.923 536.466 168.784 535.613 168.784H535.149V166.944H535.613C537.128 166.944 537.885 166.437 537.885 165.424C537.885 164.965 537.746 164.608 537.469 164.352C537.202 164.096 536.813 163.968 536.301 163.968C535.8 163.968 535.41 164.107 535.133 164.384C534.866 164.651 534.712 164.992 534.669 165.408H532.477ZM543.527 171.472C544.551 170.619 545.367 169.909 545.975 169.344C546.583 168.768 547.09 168.171 547.495 167.552C547.9 166.933 548.103 166.325 548.103 165.728C548.103 165.184 547.975 164.757 547.719 164.448C547.463 164.139 547.068 163.984 546.535 163.984C546.002 163.984 545.591 164.165 545.303 164.528C545.015 164.88 544.866 165.365 544.855 165.984H542.679C542.722 164.704 543.1 163.733 543.815 163.072C544.54 162.411 545.458 162.08 546.567 162.08C547.783 162.08 548.716 162.405 549.367 163.056C550.018 163.696 550.343 164.544 550.343 165.6C550.343 166.432 550.119 167.227 549.671 167.984C549.223 168.741 548.711 169.403 548.135 169.968C547.559 170.523 546.807 171.195 545.879 171.984H550.599V173.84H542.695V172.176L543.527 171.472ZM555.402 170.72C555.488 171.189 555.68 171.552 555.978 171.808C556.288 172.053 556.698 172.176 557.21 172.176C557.872 172.176 558.352 171.904 558.65 171.36C558.949 170.805 559.098 169.877 559.098 168.576C558.853 168.917 558.506 169.184 558.058 169.376C557.621 169.568 557.146 169.664 556.635 169.664C555.952 169.664 555.333 169.525 554.778 169.248C554.234 168.96 553.802 168.539 553.482 167.984C553.162 167.419 553.002 166.736 553.002 165.936C553.002 164.752 553.354 163.813 554.058 163.12C554.762 162.416 555.722 162.064 556.938 162.064C558.453 162.064 559.52 162.549 560.139 163.52C560.768 164.491 561.083 165.952 561.083 167.904C561.083 169.291 560.96 170.427 560.715 171.312C560.48 172.197 560.069 172.869 559.483 173.328C558.906 173.787 558.117 174.016 557.115 174.016C556.325 174.016 555.653 173.867 555.098 173.568C554.544 173.259 554.117 172.859 553.818 172.368C553.53 171.867 553.365 171.317 553.322 170.72H555.402ZM557.098 167.84C557.653 167.84 558.091 167.669 558.411 167.328C558.731 166.987 558.891 166.528 558.891 165.952C558.891 165.323 558.72 164.837 558.378 164.496C558.048 164.144 557.594 163.968 557.018 163.968C556.442 163.968 555.984 164.149 555.642 164.512C555.312 164.864 555.146 165.333 555.146 165.92C555.146 166.485 555.306 166.949 555.626 167.312C555.957 167.664 556.448 167.84 557.098 167.84Z" fill="white"/>
<path d="M10.8156 226.182C12.5516 225.37 13.8723 224.581 14.7776 223.816C15.683 223.041 16.3456 222.211 16.7656 221.324H17.7736C18.1843 222.183 18.8703 223.004 19.8316 223.788C20.8023 224.563 22.1743 225.365 23.9476 226.196L23.4996 227.008C21.6143 226.103 20.177 225.23 19.1876 224.39C18.1983 223.55 17.573 222.682 17.3116 221.786H17.2136C16.9523 222.701 16.3503 223.578 15.4076 224.418C14.465 225.258 13.0883 226.121 11.2776 227.008L10.8156 226.182ZM20.4616 226.266H14.2876V225.454H20.4616V226.266ZM15.8836 234.036V228.87H12.1036V228.058H22.0436V231.894C22.0436 232.249 21.969 232.491 21.8196 232.622C21.6703 232.743 21.4136 232.804 21.0496 232.804H18.8516L18.6136 231.992H21.1476V228.87H16.8076V234.036H15.8836ZM29.2396 225.16H31.6476V225.972H29.2396V227.568H29.3096L29.5336 227.372C29.599 227.307 29.669 227.274 29.7436 227.274C29.8276 227.274 29.8976 227.321 29.9536 227.414L31.5636 229.738L30.9196 230.312L29.3516 227.918C29.3236 227.881 29.2956 227.867 29.2676 227.876C29.249 227.885 29.2396 227.913 29.2396 227.96V234.106H28.4136V227.624H28.3156C28.2783 228.249 28.0916 228.884 27.7556 229.528C27.4196 230.172 26.897 230.872 26.1876 231.628L25.6136 230.9C26.463 230.004 27.1023 229.159 27.5316 228.366C27.961 227.573 28.213 226.775 28.2876 225.972H25.6976V225.16H28.4136V223.046C27.695 223.205 26.9156 223.335 26.0756 223.438L25.8936 222.668C26.7616 222.565 27.6576 222.402 28.5816 222.178C29.515 221.954 30.3036 221.688 30.9476 221.38L31.3676 222.08C30.817 222.36 30.1076 222.617 29.2396 222.85V225.16ZM32.3476 233.98V222.388H37.9336V233.98H37.0236V232.846H33.2436V233.98H32.3476ZM33.2436 223.214V232.034H37.0236V223.214H33.2436ZM43.6456 227.106C44.327 227.106 44.8496 226.947 45.2136 226.63C45.587 226.313 45.7736 225.897 45.7736 225.384V225.272C45.7736 224.731 45.601 224.32 45.2556 224.04C44.9196 223.751 44.4623 223.606 43.8836 223.606C43.361 223.606 42.927 223.718 42.5816 223.942C42.2456 224.166 41.9656 224.493 41.7416 224.922L40.8736 224.236C41.5456 223.116 42.5583 222.556 43.9116 222.556C44.4996 222.556 45.027 222.659 45.4936 222.864C45.9696 223.069 46.343 223.368 46.6136 223.76C46.8843 224.152 47.0196 224.614 47.0196 225.146C47.0196 225.781 46.8376 226.303 46.4736 226.714C46.1096 227.115 45.6336 227.391 45.0456 227.54V227.61C45.6616 227.722 46.175 227.997 46.5856 228.436C46.9963 228.875 47.2016 229.458 47.2016 230.186C47.2016 230.774 47.057 231.297 46.7676 231.754C46.4876 232.202 46.0816 232.552 45.5496 232.804C45.027 233.056 44.425 233.182 43.7436 233.182C42.941 233.182 42.283 233.028 41.7696 232.72C41.2563 232.403 40.813 231.978 40.4396 231.446L41.3076 230.76C41.597 231.217 41.9236 231.563 42.2876 231.796C42.661 232.02 43.1416 232.132 43.7296 232.132C44.4576 232.132 45.013 231.964 45.3956 231.628C45.7783 231.283 45.9696 230.802 45.9696 230.186V230.06C45.9696 229.444 45.7783 228.968 45.3956 228.632C45.013 228.296 44.4576 228.128 43.7296 228.128H42.5116V227.106H43.6456ZM62.516 229.962V230.788H57.406V234.05H56.496V230.788H50.084V229.962H52.282V226.406H56.496V223.914H53.248C52.5853 225.081 51.7453 226.117 50.728 227.022L50.07 226.336C51.6847 224.908 52.7813 223.247 53.36 221.352L54.27 221.534C54.1207 222.047 53.9247 222.565 53.682 223.088H62.39V223.914H57.406V226.406H61.928V227.232H57.406V229.962H62.516ZM53.192 227.232V229.962H56.496V227.232H53.192ZM71.924 222.36H77.342V223.144H66.604V226.154C66.604 229.551 66.1607 232.141 65.274 233.924L64.546 233.28C64.9473 232.44 65.2413 231.427 65.428 230.242C65.6147 229.057 65.708 227.671 65.708 226.084V222.36H70.944V221.24H71.924V222.36ZM74.066 223.704H74.934V225.132H77.3V225.888H74.934V228.03H69.152V225.888H67.108V225.132H69.152V223.704H70.02V225.132H74.066V223.704ZM70.02 227.302H74.066V225.86H70.02V227.302ZM76.012 229.626C75.368 230.662 74.3647 231.539 73.002 232.258C74.1313 232.678 75.5407 233.014 77.23 233.266L77.006 234.05C75.0927 233.789 73.436 233.35 72.036 232.734C70.524 233.369 68.7833 233.812 66.814 234.064L66.59 233.252C68.1953 233.065 69.6793 232.729 71.042 232.244C70.258 231.815 69.4507 231.25 68.62 230.55L69.18 229.976C70.0947 230.76 71.0373 231.381 72.008 231.838C73.2587 231.259 74.206 230.569 74.85 229.766H67.472V229.01H76.012V229.626Z" fill="#222222"/>
<rect x="93" y="208" width="478" height="40" fill="#4BBC37"/>
<path d="M517.576 224.4V222.336H521.432V234H519.128V224.4H517.576ZM524.477 225.408C524.53 224.341 524.904 223.52 525.597 222.944C526.301 222.357 527.224 222.064 528.365 222.064C529.144 222.064 529.81 222.203 530.365 222.48C530.92 222.747 531.336 223.115 531.613 223.584C531.901 224.043 532.045 224.565 532.045 225.152C532.045 225.824 531.869 226.395 531.517 226.864C531.176 227.323 530.765 227.632 530.285 227.792V227.856C530.904 228.048 531.384 228.389 531.725 228.88C532.077 229.371 532.253 230 532.253 230.768C532.253 231.408 532.104 231.979 531.805 232.48C531.517 232.981 531.085 233.376 530.509 233.664C529.944 233.941 529.261 234.08 528.461 234.08C527.256 234.08 526.274 233.776 525.517 233.168C524.76 232.56 524.36 231.664 524.317 230.48H526.493C526.514 231.003 526.69 231.424 527.021 231.744C527.362 232.053 527.826 232.208 528.413 232.208C528.957 232.208 529.373 232.059 529.661 231.76C529.96 231.451 530.109 231.056 530.109 230.576C530.109 229.936 529.906 229.477 529.501 229.2C529.096 228.923 528.466 228.784 527.613 228.784H527.149V226.944H527.613C529.128 226.944 529.885 226.437 529.885 225.424C529.885 224.965 529.746 224.608 529.469 224.352C529.202 224.096 528.813 223.968 528.301 223.968C527.8 223.968 527.41 224.107 527.133 224.384C526.866 224.651 526.712 224.992 526.669 225.408H524.477ZM534.551 224.4V222.336H538.407V234H536.103V224.4H534.551ZM549.26 224.272H544.076V227.008C544.3 226.731 544.62 226.507 545.036 226.336C545.452 226.155 545.895 226.064 546.364 226.064C547.217 226.064 547.916 226.251 548.46 226.624C549.004 226.997 549.399 227.477 549.644 228.064C549.889 228.64 550.012 229.259 550.012 229.92C550.012 231.147 549.66 232.133 548.956 232.88C548.263 233.627 547.271 234 545.98 234C544.764 234 543.793 233.696 543.068 233.088C542.343 232.48 541.932 231.685 541.836 230.704H544.012C544.108 231.131 544.321 231.472 544.652 231.728C544.993 231.984 545.425 232.112 545.948 232.112C546.577 232.112 547.052 231.915 547.372 231.52C547.692 231.125 547.852 230.603 547.852 229.952C547.852 229.291 547.687 228.789 547.356 228.448C547.036 228.096 546.561 227.92 545.932 227.92C545.484 227.92 545.111 228.032 544.812 228.256C544.513 228.48 544.3 228.779 544.172 229.152H542.028V222.304H549.26V224.272Z" fill="white"/>
<path d="M10.8156 286.182C12.5516 285.37 13.8723 284.581 14.7776 283.816C15.683 283.041 16.3456 282.211 16.7656 281.324H17.7736C18.1843 282.183 18.8703 283.004 19.8316 283.788C20.8023 284.563 22.1743 285.365 23.9476 286.196L23.4996 287.008C21.6143 286.103 20.177 285.23 19.1876 284.39C18.1983 283.55 17.573 282.682 17.3116 281.786H17.2136C16.9523 282.701 16.3503 283.578 15.4076 284.418C14.465 285.258 13.0883 286.121 11.2776 287.008L10.8156 286.182ZM20.4616 286.266H14.2876V285.454H20.4616V286.266ZM15.8836 294.036V288.87H12.1036V288.058H22.0436V291.894C22.0436 292.249 21.969 292.491 21.8196 292.622C21.6703 292.743 21.4136 292.804 21.0496 292.804H18.8516L18.6136 291.992H21.1476V288.87H16.8076V294.036H15.8836ZM29.2396 285.16H31.6476V285.972H29.2396V287.568H29.3096L29.5336 287.372C29.599 287.307 29.669 287.274 29.7436 287.274C29.8276 287.274 29.8976 287.321 29.9536 287.414L31.5636 289.738L30.9196 290.312L29.3516 287.918C29.3236 287.881 29.2956 287.867 29.2676 287.876C29.249 287.885 29.2396 287.913 29.2396 287.96V294.106H28.4136V287.624H28.3156C28.2783 288.249 28.0916 288.884 27.7556 289.528C27.4196 290.172 26.897 290.872 26.1876 291.628L25.6136 290.9C26.463 290.004 27.1023 289.159 27.5316 288.366C27.961 287.573 28.213 286.775 28.2876 285.972H25.6976V285.16H28.4136V283.046C27.695 283.205 26.9156 283.335 26.0756 283.438L25.8936 282.668C26.7616 282.565 27.6576 282.402 28.5816 282.178C29.515 281.954 30.3036 281.688 30.9476 281.38L31.3676 282.08C30.817 282.36 30.1076 282.617 29.2396 282.85V285.16ZM32.3476 293.98V282.388H37.9336V293.98H37.0236V292.846H33.2436V293.98H32.3476ZM33.2436 283.214V292.034H37.0236V283.214H33.2436ZM40.9016 293V291.796L44.2896 288.646C45.4096 287.591 45.9696 286.625 45.9696 285.748V285.552C45.9696 284.955 45.8016 284.483 45.4656 284.138C45.139 283.783 44.6583 283.606 44.0236 283.606C42.9036 283.606 42.1803 284.194 41.8536 285.37L40.8036 284.964C41.037 284.264 41.415 283.69 41.9376 283.242C42.4696 282.785 43.1883 282.556 44.0936 282.556C44.7376 282.556 45.293 282.682 45.7596 282.934C46.2356 283.186 46.595 283.536 46.8376 283.984C47.0896 284.432 47.2156 284.95 47.2156 285.538C47.2156 286.266 47.029 286.924 46.6556 287.512C46.2823 288.091 45.7316 288.716 45.0036 289.388L42.1756 291.964H47.6076V293H40.9016ZM62.516 289.962V290.788H57.406V294.05H56.496V290.788H50.084V289.962H52.282V286.406H56.496V283.914H53.248C52.5853 285.081 51.7453 286.117 50.728 287.022L50.07 286.336C51.6847 284.908 52.7813 283.247 53.36 281.352L54.27 281.534C54.1207 282.047 53.9247 282.565 53.682 283.088H62.39V283.914H57.406V286.406H61.928V287.232H57.406V289.962H62.516ZM53.192 287.232V289.962H56.496V287.232H53.192ZM71.924 282.36H77.342V283.144H66.604V286.154C66.604 289.551 66.1607 292.141 65.274 293.924L64.546 293.28C64.9473 292.44 65.2413 291.427 65.428 290.242C65.6147 289.057 65.708 287.671 65.708 286.084V282.36H70.944V281.24H71.924V282.36ZM74.066 283.704H74.934V285.132H77.3V285.888H74.934V288.03H69.152V285.888H67.108V285.132H69.152V283.704H70.02V285.132H74.066V283.704ZM70.02 287.302H74.066V285.86H70.02V287.302ZM76.012 289.626C75.368 290.662 74.3647 291.539 73.002 292.258C74.1313 292.678 75.5407 293.014 77.23 293.266L77.006 294.05C75.0927 293.789 73.436 293.35 72.036 292.734C70.524 293.369 68.7833 293.812 66.814 294.064L66.59 293.252C68.1953 293.065 69.6793 292.729 71.042 292.244C70.258 291.815 69.4507 291.25 68.62 290.55L69.18 289.976C70.0947 290.76 71.0373 291.381 72.008 291.838C73.2587 291.259 74.206 290.569 74.85 289.766H67.472V289.01H76.012V289.626Z" fill="#222222"/>
<rect x="93" y="268" width="561" height="40" fill="#4BBC37"/>
<path d="M599.576 284.4V282.336H603.432V294H601.128V284.4H599.576ZM614.285 284.272H609.101V287.008C609.325 286.731 609.645 286.507 610.061 286.336C610.477 286.155 610.92 286.064 611.389 286.064C612.242 286.064 612.941 286.251 613.485 286.624C614.029 286.997 614.424 287.477 614.669 288.064C614.914 288.64 615.037 289.259 615.037 289.92C615.037 291.147 614.685 292.133 613.981 292.88C613.288 293.627 612.296 294 611.005 294C609.789 294 608.818 293.696 608.093 293.088C607.368 292.48 606.957 291.685 606.861 290.704H609.037C609.133 291.131 609.346 291.472 609.677 291.728C610.018 291.984 610.45 292.112 610.973 292.112C611.602 292.112 612.077 291.915 612.397 291.52C612.717 291.125 612.877 290.603 612.877 289.952C612.877 289.291 612.712 288.789 612.381 288.448C612.061 288.096 611.586 287.92 610.957 287.92C610.509 287.92 610.136 288.032 609.837 288.256C609.538 288.48 609.325 288.779 609.197 289.152H607.053V282.304H614.285V284.272ZM617.27 284.4V282.336H621.126V294H618.822V284.4H617.27ZM631.979 284.272H626.795V287.008C627.019 286.731 627.339 286.507 627.755 286.336C628.171 286.155 628.613 286.064 629.083 286.064C629.936 286.064 630.635 286.251 631.179 286.624C631.723 286.997 632.117 287.477 632.363 288.064C632.608 288.64 632.731 289.259 632.731 289.92C632.731 291.147 632.379 292.133 631.675 292.88C630.981 293.627 629.989 294 628.699 294C627.483 294 626.512 293.696 625.787 293.088C625.061 292.48 624.651 291.685 624.555 290.704H626.731C626.827 291.131 627.04 291.472 627.371 291.728C627.712 291.984 628.144 292.112 628.667 292.112C629.296 292.112 629.771 291.915 630.091 291.52C630.411 291.125 630.571 290.603 630.571 289.952C630.571 289.291 630.405 288.789 630.075 288.448C629.755 288.096 629.28 287.92 628.651 287.92C628.203 287.92 627.829 288.032 627.531 288.256C627.232 288.48 627.019 288.779 626.891 289.152H624.747V282.304H631.979V284.272Z" fill="white"/>
<path d="M5.634 346.182C7.37 345.37 8.69066 344.581 9.596 343.816C10.5013 343.041 11.164 342.211 11.584 341.324H12.592C13.0027 342.183 13.6887 343.004 14.65 343.788C15.6207 344.563 16.9927 345.365 18.766 346.196L18.318 347.008C16.4327 346.103 14.9953 345.23 14.006 344.39C13.0167 343.55 12.3913 342.682 12.13 341.786H12.032C11.7707 342.701 11.1687 343.578 10.226 344.418C9.28333 345.258 7.90666 346.121 6.096 347.008L5.634 346.182ZM15.28 346.266H9.106V345.454H15.28V346.266ZM10.702 354.036V348.87H6.922V348.058H16.862V351.894C16.862 352.249 16.7873 352.491 16.638 352.622C16.4887 352.743 16.232 352.804 15.868 352.804H13.67L13.432 351.992H15.966V348.87H11.626V354.036H10.702ZM24.058 345.16H26.466V345.972H24.058V347.568H24.128L24.352 347.372C24.4173 347.307 24.4873 347.274 24.562 347.274C24.646 347.274 24.716 347.321 24.772 347.414L26.382 349.738L25.738 350.312L24.17 347.918C24.142 347.881 24.114 347.867 24.086 347.876C24.0673 347.885 24.058 347.913 24.058 347.96V354.106H23.232V347.624H23.134C23.0967 348.249 22.91 348.884 22.574 349.528C22.238 350.172 21.7153 350.872 21.006 351.628L20.432 350.9C21.2813 350.004 21.9207 349.159 22.35 348.366C22.7793 347.573 23.0313 346.775 23.106 345.972H20.516V345.16H23.232V343.046C22.5133 343.205 21.734 343.335 20.894 343.438L20.712 342.668C21.58 342.565 22.476 342.402 23.4 342.178C24.3333 341.954 25.122 341.688 25.766 341.38L26.186 342.08C25.6353 342.36 24.926 342.617 24.058 342.85V345.16ZM27.166 353.98V342.388H32.752V353.98H31.842V352.846H28.062V353.98H27.166ZM28.062 343.214V352.034H31.842V343.214H28.062ZM36.294 342.08H46.92V342.948H36.294V342.08ZM47.816 346.714H43.91V351.768C43.91 352.067 43.938 352.291 43.994 352.44C44.05 352.589 44.1527 352.692 44.302 352.748C44.4513 352.804 44.68 352.832 44.988 352.832H46.752V349.71L47.634 349.92V352.58C47.634 352.972 47.5407 353.257 47.354 353.434C47.1767 353.611 46.8967 353.7 46.514 353.7H44.862C44.218 353.7 43.742 353.574 43.434 353.322C43.1353 353.07 42.986 352.627 42.986 351.992V346.714H39.752V347.498C39.752 348.991 39.4347 350.261 38.8 351.306C38.1747 352.351 37.1993 353.229 35.874 353.938L35.356 353.168C36.504 352.561 37.3673 351.819 37.946 350.942C38.534 350.055 38.828 348.945 38.828 347.61V346.714H35.384V345.846H47.816V346.714ZM62.516 349.962V350.788H57.406V354.05H56.496V350.788H50.084V349.962H52.282V346.406H56.496V343.914H53.248C52.5853 345.081 51.7453 346.117 50.728 347.022L50.07 346.336C51.6847 344.908 52.7813 343.247 53.36 341.352L54.27 341.534C54.1207 342.047 53.9247 342.565 53.682 343.088H62.39V343.914H57.406V346.406H61.928V347.232H57.406V349.962H62.516ZM53.192 347.232V349.962H56.496V347.232H53.192ZM71.924 342.36H77.342V343.144H66.604V346.154C66.604 349.551 66.1607 352.141 65.274 353.924L64.546 353.28C64.9473 352.44 65.2413 351.427 65.428 350.242C65.6147 349.057 65.708 347.671 65.708 346.084V342.36H70.944V341.24H71.924V342.36ZM74.066 343.704H74.934V345.132H77.3V345.888H74.934V348.03H69.152V345.888H67.108V345.132H69.152V343.704H70.02V345.132H74.066V343.704ZM70.02 347.302H74.066V345.86H70.02V347.302ZM76.012 349.626C75.368 350.662 74.3647 351.539 73.002 352.258C74.1313 352.678 75.5407 353.014 77.23 353.266L77.006 354.05C75.0927 353.789 73.436 353.35 72.036 352.734C70.524 353.369 68.7833 353.812 66.814 354.064L66.59 353.252C68.1953 353.065 69.6793 352.729 71.042 352.244C70.258 351.815 69.4507 351.25 68.62 350.55L69.18 349.976C70.0947 350.76 71.0373 351.381 72.008 351.838C73.2587 351.259 74.206 350.569 74.85 349.766H67.472V349.01H76.012V349.626Z" fill="#222222"/>
<rect x="93" y="328" width="752" height="40" fill="#4BBC37"/>
<path d="M784.552 351.472C785.576 350.619 786.392 349.909 787 349.344C787.608 348.768 788.115 348.171 788.52 347.552C788.925 346.933 789.128 346.325 789.128 345.728C789.128 345.184 789 344.757 788.744 344.448C788.488 344.139 788.093 343.984 787.56 343.984C787.027 343.984 786.616 344.165 786.328 344.528C786.04 344.88 785.891 345.365 785.88 345.984H783.704C783.747 344.704 784.125 343.733 784.84 343.072C785.565 342.411 786.483 342.08 787.592 342.08C788.808 342.08 789.741 342.405 790.392 343.056C791.043 343.696 791.368 344.544 791.368 345.6C791.368 346.432 791.144 347.227 790.696 347.984C790.248 348.741 789.736 349.403 789.16 349.968C788.584 350.523 787.832 351.195 786.904 351.984H791.624V353.84H783.72V352.176L784.552 351.472ZM793.836 348.016C793.836 346.171 794.166 344.725 794.828 343.68C795.5 342.635 796.609 342.112 798.156 342.112C799.702 342.112 800.806 342.635 801.468 343.68C802.14 344.725 802.476 346.171 802.476 348.016C802.476 349.872 802.14 351.328 801.468 352.384C800.806 353.44 799.702 353.968 798.156 353.968C796.609 353.968 795.5 353.44 794.828 352.384C794.166 351.328 793.836 349.872 793.836 348.016ZM800.268 348.016C800.268 347.227 800.214 346.565 800.108 346.032C800.012 345.488 799.809 345.045 799.5 344.704C799.201 344.363 798.753 344.192 798.156 344.192C797.558 344.192 797.105 344.363 796.796 344.704C796.497 345.045 796.294 345.488 796.188 346.032C796.092 346.565 796.044 347.227 796.044 348.016C796.044 348.827 796.092 349.509 796.188 350.064C796.284 350.608 796.486 351.051 796.796 351.392C797.105 351.723 797.558 351.888 798.156 351.888C798.753 351.888 799.206 351.723 799.516 351.392C799.825 351.051 800.028 350.608 800.124 350.064C800.22 349.509 800.268 348.827 800.268 348.016ZM805.683 351.472C806.707 350.619 807.523 349.909 808.131 349.344C808.739 348.768 809.246 348.171 809.651 347.552C810.057 346.933 810.259 346.325 810.259 345.728C810.259 345.184 810.131 344.757 809.875 344.448C809.619 344.139 809.225 343.984 808.691 343.984C808.158 343.984 807.747 344.165 807.459 344.528C807.171 344.88 807.022 345.365 807.011 345.984H804.835C804.878 344.704 805.257 343.733 805.971 343.072C806.697 342.411 807.614 342.08 808.723 342.08C809.939 342.08 810.873 342.405 811.523 343.056C812.174 343.696 812.499 344.544 812.499 345.6C812.499 346.432 812.275 347.227 811.827 347.984C811.379 348.741 810.867 349.403 810.291 349.968C809.715 350.523 808.963 351.195 808.035 351.984H812.755V353.84H804.851V352.176L805.683 351.472ZM814.871 351.728V349.968L820.103 342.48H822.711V349.776H824.119V351.728H822.711V354H820.471V351.728H814.871ZM820.615 344.88L817.335 349.776H820.615V344.88Z" fill="white"/>
<path d="M8.22728 408.156H14.1493V408.996H8.22728V413.938H7.28928V408.996H1.57728V408.156H7.28928V402.934H2.05328V402.08H13.6873V402.934H8.22728V408.156ZM9.94928 406.938C10.3133 406.471 10.6773 405.93 11.0413 405.314C11.4146 404.698 11.7179 404.124 11.9513 403.592L12.7773 404.012C12.5159 404.581 12.2033 405.179 11.8393 405.804C11.4753 406.429 11.1113 406.975 10.7473 407.442L9.94928 406.938ZM3.71928 403.606C4.00861 404.035 4.32595 404.558 4.67128 405.174C5.02595 405.79 5.33395 406.378 5.59528 406.938L4.78328 407.33C4.54995 406.817 4.25128 406.238 3.88728 405.594C3.52328 404.95 3.20128 404.423 2.92128 404.012L3.71928 403.606ZM28.1913 410.13L28.9613 410.494L28.6113 413.14C28.5739 413.364 28.4993 413.532 28.3873 413.644C28.2753 413.756 28.1353 413.812 27.9673 413.812C27.7713 413.812 27.5799 413.751 27.3933 413.63C26.5813 413.154 25.8953 412.412 25.3353 411.404C24.4299 412.375 23.2586 413.196 21.8213 413.868L21.4293 413.098C22.8946 412.426 24.0613 411.591 24.9293 410.592C24.1826 408.884 23.7813 406.747 23.7253 404.18H18.2933V406.42H22.3113C22.3113 407.475 22.2926 408.315 22.2553 408.94C22.2179 409.556 22.1479 410.102 22.0453 410.578C21.9426 411.063 21.7746 411.413 21.5413 411.628C21.3173 411.843 20.9813 411.95 20.5333 411.95H19.1053L18.9233 411.11H20.3233C20.6033 411.11 20.8039 411.049 20.9253 410.928C21.0559 410.807 21.1539 410.583 21.2193 410.256C21.3593 409.547 21.4293 408.539 21.4293 407.232H18.2933C18.2746 408.772 18.1579 410.074 17.9433 411.138C17.7286 412.202 17.3926 413.131 16.9353 413.924L16.1933 413.266C16.6226 412.538 16.9306 411.675 17.1173 410.676C17.3039 409.668 17.3973 408.371 17.3973 406.784V403.34H23.7113V401.324H24.5933V403.34H28.7653V404.18H24.5933C24.6306 406.42 24.9433 408.301 25.5313 409.822C26.3059 408.674 26.9079 407.176 27.3373 405.328L28.1633 405.566C27.6593 407.685 26.9126 409.397 25.9233 410.704C26.4366 411.721 27.0713 412.454 27.8273 412.902L28.1913 410.13ZM27.6313 403.172C27.2859 402.957 26.8893 402.747 26.4413 402.542C26.0026 402.327 25.5826 402.15 25.1813 402.01L25.5873 401.366C25.9979 401.506 26.4273 401.683 26.8753 401.898C27.3233 402.113 27.7199 402.327 28.0653 402.542L27.6313 403.172ZM34.1273 407.106C34.8086 407.106 35.3313 406.947 35.6953 406.63C36.0686 406.313 36.2553 405.897 36.2553 405.384V405.272C36.2553 404.731 36.0826 404.32 35.7373 404.04C35.4013 403.751 34.9439 403.606 34.3653 403.606C33.8426 403.606 33.4086 403.718 33.0633 403.942C32.7273 404.166 32.4473 404.493 32.2233 404.922L31.3553 404.236C32.0273 403.116 33.0399 402.556 34.3933 402.556C34.9813 402.556 35.5086 402.659 35.9753 402.864C36.4513 403.069 36.8246 403.368 37.0953 403.76C37.3659 404.152 37.5013 404.614 37.5013 405.146C37.5013 405.781 37.3193 406.303 36.9553 406.714C36.5913 407.115 36.1153 407.391 35.5273 407.54V407.61C36.1433 407.722 36.6566 407.997 37.0673 408.436C37.4779 408.875 37.6833 409.458 37.6833 410.186C37.6833 410.774 37.5386 411.297 37.2493 411.754C36.9693 412.202 36.5633 412.552 36.0313 412.804C35.5086 413.056 34.9066 413.182 34.2253 413.182C33.4226 413.182 32.7646 413.028 32.2513 412.72C31.7379 412.403 31.2946 411.978 30.9213 411.446L31.7893 410.76C32.0786 411.217 32.4053 411.563 32.7693 411.796C33.1426 412.02 33.6233 412.132 34.2113 412.132C34.9393 412.132 35.4946 411.964 35.8773 411.628C36.2599 411.283 36.4513 410.802 36.4513 410.186V410.06C36.4513 409.444 36.2599 408.968 35.8773 408.632C35.4946 408.296 34.9393 408.128 34.2113 408.128H32.9933V407.106H34.1273ZM44.1916 413.182C41.849 413.182 40.6776 411.413 40.6776 407.876C40.6776 404.329 41.849 402.556 44.1916 402.556C46.5343 402.556 47.7056 404.329 47.7056 407.876C47.7056 411.413 46.5343 413.182 44.1916 413.182ZM44.1916 412.16C44.9663 412.16 45.5403 411.852 45.9136 411.236C46.287 410.62 46.4736 409.771 46.4736 408.688V407.05C46.4736 405.967 46.287 405.118 45.9136 404.502C45.5403 403.886 44.9663 403.578 44.1916 403.578C43.417 403.578 42.843 403.886 42.4696 404.502C42.0963 405.118 41.9096 405.967 41.9096 407.05V408.688C41.9096 409.771 42.0963 410.62 42.4696 411.236C42.843 411.852 43.417 412.16 44.1916 412.16ZM62.516 409.962V410.788H57.406V414.05H56.496V410.788H50.084V409.962H52.282V406.406H56.496V403.914H53.248C52.5853 405.081 51.7453 406.117 50.728 407.022L50.07 406.336C51.6847 404.908 52.7813 403.247 53.36 401.352L54.27 401.534C54.1207 402.047 53.9247 402.565 53.682 403.088H62.39V403.914H57.406V406.406H61.928V407.232H57.406V409.962H62.516ZM53.192 407.232V409.962H56.496V407.232H53.192ZM71.924 402.36H77.342V403.144H66.604V406.154C66.604 409.551 66.1607 412.141 65.274 413.924L64.546 413.28C64.9473 412.44 65.2413 411.427 65.428 410.242C65.6147 409.057 65.708 407.671 65.708 406.084V402.36H70.944V401.24H71.924V402.36ZM74.066 403.704H74.934V405.132H77.3V405.888H74.934V408.03H69.152V405.888H67.108V405.132H69.152V403.704H70.02V405.132H74.066V403.704ZM70.02 407.302H74.066V405.86H70.02V407.302ZM76.012 409.626C75.368 410.662 74.3647 411.539 73.002 412.258C74.1313 412.678 75.5407 413.014 77.23 413.266L77.006 414.05C75.0927 413.789 73.436 413.35 72.036 412.734C70.524 413.369 68.7833 413.812 66.814 414.064L66.59 413.252C68.1953 413.065 69.6793 412.729 71.042 412.244C70.258 411.815 69.4507 411.25 68.62 410.55L69.18 409.976C70.0947 410.76 71.0373 411.381 72.008 411.838C73.2587 411.259 74.206 410.569 74.85 409.766H67.472V409.01H76.012V409.626Z" fill="#222222"/>
<rect x="93" y="388" width="388" height="40" fill="#4BBC37"/>
<path d="M423.576 404.4V402.336H427.432V414H425.128V404.4H423.576ZM430.445 408.016C430.445 406.171 430.776 404.725 431.437 403.68C432.109 402.635 433.218 402.112 434.765 402.112C436.312 402.112 437.416 402.635 438.077 403.68C438.749 404.725 439.085 406.171 439.085 408.016C439.085 409.872 438.749 411.328 438.077 412.384C437.416 413.44 436.312 413.968 434.765 413.968C433.218 413.968 432.109 413.44 431.437 412.384C430.776 411.328 430.445 409.872 430.445 408.016ZM436.877 408.016C436.877 407.227 436.824 406.565 436.717 406.032C436.621 405.488 436.418 405.045 436.109 404.704C435.81 404.363 435.362 404.192 434.765 404.192C434.168 404.192 433.714 404.363 433.405 404.704C433.106 405.045 432.904 405.488 432.797 406.032C432.701 406.565 432.653 407.227 432.653 408.016C432.653 408.827 432.701 409.509 432.797 410.064C432.893 410.608 433.096 411.051 433.405 411.392C433.714 411.723 434.168 411.888 434.765 411.888C435.362 411.888 435.816 411.723 436.125 411.392C436.434 411.051 436.637 410.608 436.733 410.064C436.829 409.509 436.877 408.827 436.877 408.016ZM449.429 404.272H444.245V407.008C444.469 406.731 444.789 406.507 445.205 406.336C445.621 406.155 446.063 406.064 446.533 406.064C447.386 406.064 448.085 406.251 448.629 406.624C449.173 406.997 449.567 407.477 449.813 408.064C450.058 408.64 450.181 409.259 450.181 409.92C450.181 411.147 449.829 412.133 449.125 412.88C448.431 413.627 447.439 414 446.149 414C444.933 414 443.962 413.696 443.237 413.088C442.511 412.48 442.101 411.685 442.005 410.704H444.181C444.277 411.131 444.49 411.472 444.821 411.728C445.162 411.984 445.594 412.112 446.117 412.112C446.746 412.112 447.221 411.915 447.541 411.52C447.861 411.125 448.021 410.603 448.021 409.952C448.021 409.291 447.855 408.789 447.525 408.448C447.205 408.096 446.73 407.92 446.101 407.92C445.653 407.92 445.279 408.032 444.981 408.256C444.682 408.48 444.469 408.779 444.341 409.152H442.197V402.304H449.429V404.272ZM460.109 404.032L455.853 414H453.581L457.869 404.288H452.397V402.368H460.109V404.032Z" fill="white"/>
<path d="M8.22728 468.156H14.1493V468.996H8.22728V473.938H7.28928V468.996H1.57728V468.156H7.28928V462.934H2.05328V462.08H13.6873V462.934H8.22728V468.156ZM9.94928 466.938C10.3133 466.471 10.6773 465.93 11.0413 465.314C11.4146 464.698 11.7179 464.124 11.9513 463.592L12.7773 464.012C12.5159 464.581 12.2033 465.179 11.8393 465.804C11.4753 466.429 11.1113 466.975 10.7473 467.442L9.94928 466.938ZM3.71928 463.606C4.00861 464.035 4.32595 464.558 4.67128 465.174C5.02595 465.79 5.33395 466.378 5.59528 466.938L4.78328 467.33C4.54995 466.817 4.25128 466.238 3.88728 465.594C3.52328 464.95 3.20128 464.423 2.92128 464.012L3.71928 463.606ZM28.1913 470.13L28.9613 470.494L28.6113 473.14C28.5739 473.364 28.4993 473.532 28.3873 473.644C28.2753 473.756 28.1353 473.812 27.9673 473.812C27.7713 473.812 27.5799 473.751 27.3933 473.63C26.5813 473.154 25.8953 472.412 25.3353 471.404C24.4299 472.375 23.2586 473.196 21.8213 473.868L21.4293 473.098C22.8946 472.426 24.0613 471.591 24.9293 470.592C24.1826 468.884 23.7813 466.747 23.7253 464.18H18.2933V466.42H22.3113C22.3113 467.475 22.2926 468.315 22.2553 468.94C22.2179 469.556 22.1479 470.102 22.0453 470.578C21.9426 471.063 21.7746 471.413 21.5413 471.628C21.3173 471.843 20.9813 471.95 20.5333 471.95H19.1053L18.9233 471.11H20.3233C20.6033 471.11 20.8039 471.049 20.9253 470.928C21.0559 470.807 21.1539 470.583 21.2193 470.256C21.3593 469.547 21.4293 468.539 21.4293 467.232H18.2933C18.2746 468.772 18.1579 470.074 17.9433 471.138C17.7286 472.202 17.3926 473.131 16.9353 473.924L16.1933 473.266C16.6226 472.538 16.9306 471.675 17.1173 470.676C17.3039 469.668 17.3973 468.371 17.3973 466.784V463.34H23.7113V461.324H24.5933V463.34H28.7653V464.18H24.5933C24.6306 466.42 24.9433 468.301 25.5313 469.822C26.3059 468.674 26.9079 467.176 27.3373 465.328L28.1633 465.566C27.6593 467.685 26.9126 469.397 25.9233 470.704C26.4366 471.721 27.0713 472.454 27.8273 472.902L28.1913 470.13ZM27.6313 463.172C27.2859 462.957 26.8893 462.747 26.4413 462.542C26.0026 462.327 25.5826 462.15 25.1813 462.01L25.5873 461.366C25.9979 461.506 26.4273 461.683 26.8753 461.898C27.3233 462.113 27.7199 462.327 28.0653 462.542L27.6313 463.172ZM31.3833 473V471.796L34.7713 468.646C35.8913 467.591 36.4513 466.625 36.4513 465.748V465.552C36.4513 464.955 36.2833 464.483 35.9473 464.138C35.6206 463.783 35.1399 463.606 34.5053 463.606C33.3853 463.606 32.6619 464.194 32.3353 465.37L31.2853 464.964C31.5186 464.264 31.8966 463.69 32.4193 463.242C32.9513 462.785 33.6699 462.556 34.5753 462.556C35.2193 462.556 35.7746 462.682 36.2413 462.934C36.7173 463.186 37.0766 463.536 37.3193 463.984C37.5713 464.432 37.6973 464.95 37.6973 465.538C37.6973 466.266 37.5106 466.924 37.1373 467.512C36.7639 468.091 36.2133 468.716 35.4853 469.388L32.6573 471.964H38.0893V473H31.3833ZM42.4136 473C43.1883 472.431 43.8276 471.894 44.3316 471.39C44.845 470.877 45.2696 470.321 45.6056 469.724C45.9416 469.127 46.1983 468.441 46.3756 467.666L46.3056 467.638C45.7363 468.618 44.9103 469.108 43.8276 469.108C43.2396 469.108 42.717 468.982 42.2596 468.73C41.8023 468.469 41.443 468.1 41.1816 467.624C40.9203 467.139 40.7896 466.579 40.7896 465.944C40.7896 465.281 40.9296 464.693 41.2096 464.18C41.499 463.667 41.8956 463.27 42.3996 462.99C42.913 462.701 43.5056 462.556 44.1776 462.556C44.8776 462.556 45.4843 462.715 45.9976 463.032C46.511 463.349 46.903 463.807 47.1736 464.404C47.4536 464.992 47.5936 465.683 47.5936 466.476C47.5936 467.437 47.4116 468.347 47.0476 469.206C46.693 470.055 46.2356 470.802 45.6756 471.446C45.1156 472.09 44.5323 472.608 43.9256 473H42.4136ZM44.1916 468.114C44.8916 468.114 45.4283 467.923 45.8016 467.54C46.1843 467.157 46.3756 466.616 46.3756 465.916V465.776C46.3756 465.076 46.1843 464.535 45.8016 464.152C45.419 463.769 44.8823 463.578 44.1916 463.578C43.501 463.578 42.9643 463.769 42.5816 464.152C42.199 464.535 42.0076 465.076 42.0076 465.776V465.916C42.0076 466.616 42.199 467.157 42.5816 467.54C42.9643 467.923 43.501 468.114 44.1916 468.114ZM62.516 469.962V470.788H57.406V474.05H56.496V470.788H50.084V469.962H52.282V466.406H56.496V463.914H53.248C52.5853 465.081 51.7453 466.117 50.728 467.022L50.07 466.336C51.6847 464.908 52.7813 463.247 53.36 461.352L54.27 461.534C54.1207 462.047 53.9247 462.565 53.682 463.088H62.39V463.914H57.406V466.406H61.928V467.232H57.406V469.962H62.516ZM53.192 467.232V469.962H56.496V467.232H53.192ZM71.924 462.36H77.342V463.144H66.604V466.154C66.604 469.551 66.1607 472.141 65.274 473.924L64.546 473.28C64.9473 472.44 65.2413 471.427 65.428 470.242C65.6147 469.057 65.708 467.671 65.708 466.084V462.36H70.944V461.24H71.924V462.36ZM74.066 463.704H74.934V465.132H77.3V465.888H74.934V468.03H69.152V465.888H67.108V465.132H69.152V463.704H70.02V465.132H74.066V463.704ZM70.02 467.302H74.066V465.86H70.02V467.302ZM76.012 469.626C75.368 470.662 74.3647 471.539 73.002 472.258C74.1313 472.678 75.5407 473.014 77.23 473.266L77.006 474.05C75.0927 473.789 73.436 473.35 72.036 472.734C70.524 473.369 68.7833 473.812 66.814 474.064L66.59 473.252C68.1953 473.065 69.6793 472.729 71.042 472.244C70.258 471.815 69.4507 471.25 68.62 470.55L69.18 469.976C70.0947 470.76 71.0373 471.381 72.008 471.838C73.2587 471.259 74.206 470.569 74.85 469.766H67.472V469.01H76.012V469.626Z" fill="#222222"/>
<rect x="93" y="448" width="446" height="40" fill="#4BBC37"/>
<path d="M481.576 464.4V462.336H485.432V474H483.128V464.4H481.576ZM489.149 471.472C490.173 470.619 490.989 469.909 491.597 469.344C492.205 468.768 492.712 468.171 493.117 467.552C493.522 466.933 493.725 466.325 493.725 465.728C493.725 465.184 493.597 464.757 493.341 464.448C493.085 464.139 492.69 463.984 492.157 463.984C491.624 463.984 491.213 464.165 490.925 464.528C490.637 464.88 490.488 465.365 490.477 465.984H488.301C488.344 464.704 488.722 463.733 489.437 463.072C490.162 462.411 491.08 462.08 492.189 462.08C493.405 462.08 494.338 462.405 494.989 463.056C495.64 463.696 495.965 464.544 495.965 465.6C495.965 466.432 495.741 467.227 495.293 467.984C494.845 468.741 494.333 469.403 493.757 469.968C493.181 470.523 492.429 471.195 491.501 471.984H496.221V473.84H488.317V472.176L489.149 471.472ZM498.464 465.408C498.518 464.341 498.891 463.52 499.584 462.944C500.288 462.357 501.211 462.064 502.352 462.064C503.131 462.064 503.798 462.203 504.352 462.48C504.907 462.747 505.323 463.115 505.6 463.584C505.888 464.043 506.032 464.565 506.032 465.152C506.032 465.824 505.856 466.395 505.504 466.864C505.163 467.323 504.752 467.632 504.272 467.792V467.856C504.891 468.048 505.371 468.389 505.712 468.88C506.064 469.371 506.24 470 506.24 470.768C506.24 471.408 506.091 471.979 505.792 472.48C505.504 472.981 505.072 473.376 504.496 473.664C503.931 473.941 503.248 474.08 502.448 474.08C501.243 474.08 500.262 473.776 499.504 473.168C498.747 472.56 498.347 471.664 498.304 470.48H500.48C500.502 471.003 500.678 471.424 501.008 471.744C501.35 472.053 501.814 472.208 502.4 472.208C502.944 472.208 503.36 472.059 503.648 471.76C503.947 471.451 504.096 471.056 504.096 470.576C504.096 469.936 503.894 469.477 503.488 469.2C503.083 468.923 502.454 468.784 501.6 468.784H501.136V466.944H501.6C503.115 466.944 503.872 466.437 503.872 465.424C503.872 464.965 503.734 464.608 503.456 464.352C503.19 464.096 502.8 463.968 502.288 463.968C501.787 463.968 501.398 464.107 501.12 464.384C500.854 464.651 500.699 464.992 500.656 465.408H498.464ZM508.714 471.728V469.968L513.946 462.48H516.554V469.776H517.962V471.728H516.554V474H514.314V471.728H508.714ZM514.458 464.88L511.178 469.776H514.458V464.88Z" fill="white"/>
<path d="M8.22728 528.156H14.1493V528.996H8.22728V533.938H7.28928V528.996H1.57728V528.156H7.28928V522.934H2.05328V522.08H13.6873V522.934H8.22728V528.156ZM9.94928 526.938C10.3133 526.471 10.6773 525.93 11.0413 525.314C11.4146 524.698 11.7179 524.124 11.9513 523.592L12.7773 524.012C12.5159 524.581 12.2033 525.179 11.8393 525.804C11.4753 526.429 11.1113 526.975 10.7473 527.442L9.94928 526.938ZM3.71928 523.606C4.00861 524.035 4.32595 524.558 4.67128 525.174C5.02595 525.79 5.33395 526.378 5.59528 526.938L4.78328 527.33C4.54995 526.817 4.25128 526.238 3.88728 525.594C3.52328 524.95 3.20128 524.423 2.92128 524.012L3.71928 523.606ZM28.1913 530.13L28.9613 530.494L28.6113 533.14C28.5739 533.364 28.4993 533.532 28.3873 533.644C28.2753 533.756 28.1353 533.812 27.9673 533.812C27.7713 533.812 27.5799 533.751 27.3933 533.63C26.5813 533.154 25.8953 532.412 25.3353 531.404C24.4299 532.375 23.2586 533.196 21.8213 533.868L21.4293 533.098C22.8946 532.426 24.0613 531.591 24.9293 530.592C24.1826 528.884 23.7813 526.747 23.7253 524.18H18.2933V526.42H22.3113C22.3113 527.475 22.2926 528.315 22.2553 528.94C22.2179 529.556 22.1479 530.102 22.0453 530.578C21.9426 531.063 21.7746 531.413 21.5413 531.628C21.3173 531.843 20.9813 531.95 20.5333 531.95H19.1053L18.9233 531.11H20.3233C20.6033 531.11 20.8039 531.049 20.9253 530.928C21.0559 530.807 21.1539 530.583 21.2193 530.256C21.3593 529.547 21.4293 528.539 21.4293 527.232H18.2933C18.2746 528.772 18.1579 530.074 17.9433 531.138C17.7286 532.202 17.3926 533.131 16.9353 533.924L16.1933 533.266C16.6226 532.538 16.9306 531.675 17.1173 530.676C17.3039 529.668 17.3973 528.371 17.3973 526.784V523.34H23.7113V521.324H24.5933V523.34H28.7653V524.18H24.5933C24.6306 526.42 24.9433 528.301 25.5313 529.822C26.3059 528.674 26.9079 527.176 27.3373 525.328L28.1633 525.566C27.6593 527.685 26.9126 529.397 25.9233 530.704C26.4366 531.721 27.0713 532.454 27.8273 532.902L28.1913 530.13ZM27.6313 523.172C27.2859 522.957 26.8893 522.747 26.4413 522.542C26.0026 522.327 25.5826 522.15 25.1813 522.01L25.5873 521.366C25.9979 521.506 26.4273 521.683 26.8753 521.898C27.3233 522.113 27.7199 522.327 28.0653 522.542L27.6313 523.172ZM31.3833 533V531.796L34.7713 528.646C35.8913 527.591 36.4513 526.625 36.4513 525.748V525.552C36.4513 524.955 36.2833 524.483 35.9473 524.138C35.6206 523.783 35.1399 523.606 34.5053 523.606C33.3853 523.606 32.6619 524.194 32.3353 525.37L31.2853 524.964C31.5186 524.264 31.8966 523.69 32.4193 523.242C32.9513 522.785 33.6699 522.556 34.5753 522.556C35.2193 522.556 35.7746 522.682 36.2413 522.934C36.7173 523.186 37.0766 523.536 37.3193 523.984C37.5713 524.432 37.6973 524.95 37.6973 525.538C37.6973 526.266 37.5106 526.924 37.1373 527.512C36.7639 528.091 36.2133 528.716 35.4853 529.388L32.6573 531.964H38.0893V533H31.3833ZM44.1916 533.182C43.4356 533.182 42.7916 533.056 42.2596 532.804C41.7276 532.543 41.3263 532.188 41.0556 531.74C40.785 531.292 40.6496 530.783 40.6496 530.214C40.6496 529.542 40.8316 528.996 41.1956 528.576C41.569 528.147 42.0776 527.843 42.7216 527.666V527.554C42.171 527.377 41.737 527.078 41.4196 526.658C41.1116 526.229 40.9576 525.72 40.9576 525.132C40.9576 524.348 41.2423 523.723 41.8116 523.256C42.3903 522.789 43.1836 522.556 44.1916 522.556C45.1996 522.556 45.9883 522.789 46.5576 523.256C47.1363 523.723 47.4256 524.348 47.4256 525.132C47.4256 525.72 47.267 526.229 46.9496 526.658C46.6416 527.078 46.2123 527.377 45.6616 527.554V527.666C46.3056 527.843 46.8096 528.147 47.1736 528.576C47.547 528.996 47.7336 529.542 47.7336 530.214C47.7336 530.783 47.5983 531.292 47.3276 531.74C47.057 532.188 46.6556 532.543 46.1236 532.804C45.5916 533.056 44.9476 533.182 44.1916 533.182ZM44.1916 527.12C44.8356 527.12 45.3303 526.98 45.6756 526.7C46.0303 526.411 46.2076 526 46.2076 525.468V525.244C46.2076 524.703 46.0303 524.292 45.6756 524.012C45.3303 523.723 44.8356 523.578 44.1916 523.578C43.5476 523.578 43.0483 523.723 42.6936 524.012C42.3483 524.292 42.1756 524.703 42.1756 525.244V525.468C42.1756 526 42.3483 526.411 42.6936 526.7C43.0483 526.98 43.5476 527.12 44.1916 527.12ZM44.1916 532.16C44.9103 532.16 45.4703 531.997 45.8716 531.67C46.2823 531.343 46.4876 530.881 46.4876 530.284V529.976C46.4876 529.388 46.2823 528.931 45.8716 528.604C45.4703 528.268 44.9103 528.1 44.1916 528.1C43.473 528.1 42.9083 528.268 42.4976 528.604C42.0963 528.931 41.8956 529.388 41.8956 529.976V530.284C41.8956 530.881 42.0963 531.343 42.4976 531.67C42.9083 531.997 43.473 532.16 44.1916 532.16ZM62.516 529.962V530.788H57.406V534.05H56.496V530.788H50.084V529.962H52.282V526.406H56.496V523.914H53.248C52.5853 525.081 51.7453 526.117 50.728 527.022L50.07 526.336C51.6847 524.908 52.7813 523.247 53.36 521.352L54.27 521.534C54.1207 522.047 53.9247 522.565 53.682 523.088H62.39V523.914H57.406V526.406H61.928V527.232H57.406V529.962H62.516ZM53.192 527.232V529.962H56.496V527.232H53.192ZM71.924 522.36H77.342V523.144H66.604V526.154C66.604 529.551 66.1607 532.141 65.274 533.924L64.546 533.28C64.9473 532.44 65.2413 531.427 65.428 530.242C65.6147 529.057 65.708 527.671 65.708 526.084V522.36H70.944V521.24H71.924V522.36ZM74.066 523.704H74.934V525.132H77.3V525.888H74.934V528.03H69.152V525.888H67.108V525.132H69.152V523.704H70.02V525.132H74.066V523.704ZM70.02 527.302H74.066V525.86H70.02V527.302ZM76.012 529.626C75.368 530.662 74.3647 531.539 73.002 532.258C74.1313 532.678 75.5407 533.014 77.23 533.266L77.006 534.05C75.0927 533.789 73.436 533.35 72.036 532.734C70.524 533.369 68.7833 533.812 66.814 534.064L66.59 533.252C68.1953 533.065 69.6793 532.729 71.042 532.244C70.258 531.815 69.4507 531.25 68.62 530.55L69.18 529.976C70.0947 530.76 71.0373 531.381 72.008 531.838C73.2587 531.259 74.206 530.569 74.85 529.766H67.472V529.01H76.012V529.626Z" fill="#222222"/>
<rect x="93" y="508" width="382" height="40" fill="#4BBC37"/>
<path d="M420.576 524.4V522.336H424.432V534H422.128V524.4H420.576ZM427.445 528.016C427.445 526.171 427.776 524.725 428.437 523.68C429.109 522.635 430.218 522.112 431.765 522.112C433.312 522.112 434.416 522.635 435.077 523.68C435.749 524.725 436.085 526.171 436.085 528.016C436.085 529.872 435.749 531.328 435.077 532.384C434.416 533.44 433.312 533.968 431.765 533.968C430.218 533.968 429.109 533.44 428.437 532.384C427.776 531.328 427.445 529.872 427.445 528.016ZM433.877 528.016C433.877 527.227 433.824 526.565 433.717 526.032C433.621 525.488 433.418 525.045 433.109 524.704C432.81 524.363 432.362 524.192 431.765 524.192C431.168 524.192 430.714 524.363 430.405 524.704C430.106 525.045 429.904 525.488 429.797 526.032C429.701 526.565 429.653 527.227 429.653 528.016C429.653 528.827 429.701 529.509 429.797 530.064C429.893 530.608 430.096 531.051 430.405 531.392C430.714 531.723 431.168 531.888 431.765 531.888C432.362 531.888 432.816 531.723 433.125 531.392C433.434 531.051 433.637 530.608 433.733 530.064C433.829 529.509 433.877 528.827 433.877 528.016ZM438.493 531.728V529.968L443.725 522.48H446.333V529.776H447.741V531.728H446.333V534H444.093V531.728H438.493ZM444.237 524.88L440.957 529.776H444.237V524.88ZM449.695 524.4V522.336H453.551V534H451.247V524.4H449.695Z" fill="white"/>
<path d="M8.22728 588.156H14.1493V588.996H8.22728V593.938H7.28928V588.996H1.57728V588.156H7.28928V582.934H2.05328V582.08H13.6873V582.934H8.22728V588.156ZM9.94928 586.938C10.3133 586.471 10.6773 585.93 11.0413 585.314C11.4146 584.698 11.7179 584.124 11.9513 583.592L12.7773 584.012C12.5159 584.581 12.2033 585.179 11.8393 585.804C11.4753 586.429 11.1113 586.975 10.7473 587.442L9.94928 586.938ZM3.71928 583.606C4.00861 584.035 4.32595 584.558 4.67128 585.174C5.02595 585.79 5.33395 586.378 5.59528 586.938L4.78328 587.33C4.54995 586.817 4.25128 586.238 3.88728 585.594C3.52328 584.95 3.20128 584.423 2.92128 584.012L3.71928 583.606ZM28.1913 590.13L28.9613 590.494L28.6113 593.14C28.5739 593.364 28.4993 593.532 28.3873 593.644C28.2753 593.756 28.1353 593.812 27.9673 593.812C27.7713 593.812 27.5799 593.751 27.3933 593.63C26.5813 593.154 25.8953 592.412 25.3353 591.404C24.4299 592.375 23.2586 593.196 21.8213 593.868L21.4293 593.098C22.8946 592.426 24.0613 591.591 24.9293 590.592C24.1826 588.884 23.7813 586.747 23.7253 584.18H18.2933V586.42H22.3113C22.3113 587.475 22.2926 588.315 22.2553 588.94C22.2179 589.556 22.1479 590.102 22.0453 590.578C21.9426 591.063 21.7746 591.413 21.5413 591.628C21.3173 591.843 20.9813 591.95 20.5333 591.95H19.1053L18.9233 591.11H20.3233C20.6033 591.11 20.8039 591.049 20.9253 590.928C21.0559 590.807 21.1539 590.583 21.2193 590.256C21.3593 589.547 21.4293 588.539 21.4293 587.232H18.2933C18.2746 588.772 18.1579 590.074 17.9433 591.138C17.7286 592.202 17.3926 593.131 16.9353 593.924L16.1933 593.266C16.6226 592.538 16.9306 591.675 17.1173 590.676C17.3039 589.668 17.3973 588.371 17.3973 586.784V583.34H23.7113V581.324H24.5933V583.34H28.7653V584.18H24.5933C24.6306 586.42 24.9433 588.301 25.5313 589.822C26.3059 588.674 26.9079 587.176 27.3373 585.328L28.1633 585.566C27.6593 587.685 26.9126 589.397 25.9233 590.704C26.4366 591.721 27.0713 592.454 27.8273 592.902L28.1913 590.13ZM27.6313 583.172C27.2859 582.957 26.8893 582.747 26.4413 582.542C26.0026 582.327 25.5826 582.15 25.1813 582.01L25.5873 581.366C25.9979 581.506 26.4273 581.683 26.8753 581.898C27.3233 582.113 27.7199 582.327 28.0653 582.542L27.6313 583.172ZM31.3833 593V591.796L34.7713 588.646C35.8913 587.591 36.4513 586.625 36.4513 585.748V585.552C36.4513 584.955 36.2833 584.483 35.9473 584.138C35.6206 583.783 35.1399 583.606 34.5053 583.606C33.3853 583.606 32.6619 584.194 32.3353 585.37L31.2853 584.964C31.5186 584.264 31.8966 583.69 32.4193 583.242C32.9513 582.785 33.6699 582.556 34.5753 582.556C35.2193 582.556 35.7746 582.682 36.2413 582.934C36.7173 583.186 37.0766 583.536 37.3193 583.984C37.5713 584.432 37.6973 584.95 37.6973 585.538C37.6973 586.266 37.5106 586.924 37.1373 587.512C36.7639 588.091 36.2133 588.716 35.4853 589.388L32.6573 591.964H38.0893V593H31.3833ZM47.5096 583.774L43.6316 593H42.3716L46.3196 583.746H41.8396V585.692H40.7896V582.738H47.5096V583.774ZM62.516 589.962V590.788H57.406V594.05H56.496V590.788H50.084V589.962H52.282V586.406H56.496V583.914H53.248C52.5853 585.081 51.7453 586.117 50.728 587.022L50.07 586.336C51.6847 584.908 52.7813 583.247 53.36 581.352L54.27 581.534C54.1207 582.047 53.9247 582.565 53.682 583.088H62.39V583.914H57.406V586.406H61.928V587.232H57.406V589.962H62.516ZM53.192 587.232V589.962H56.496V587.232H53.192ZM71.924 582.36H77.342V583.144H66.604V586.154C66.604 589.551 66.1607 592.141 65.274 593.924L64.546 593.28C64.9473 592.44 65.2413 591.427 65.428 590.242C65.6147 589.057 65.708 587.671 65.708 586.084V582.36H70.944V581.24H71.924V582.36ZM74.066 583.704H74.934V585.132H77.3V585.888H74.934V588.03H69.152V585.888H67.108V585.132H69.152V583.704H70.02V585.132H74.066V583.704ZM70.02 587.302H74.066V585.86H70.02V587.302ZM76.012 589.626C75.368 590.662 74.3647 591.539 73.002 592.258C74.1313 592.678 75.5407 593.014 77.23 593.266L77.006 594.05C75.0927 593.789 73.436 593.35 72.036 592.734C70.524 593.369 68.7833 593.812 66.814 594.064L66.59 593.252C68.1953 593.065 69.6793 592.729 71.042 592.244C70.258 591.815 69.4507 591.25 68.62 590.55L69.18 589.976C70.0947 590.76 71.0373 591.381 72.008 591.838C73.2587 591.259 74.206 590.569 74.85 589.766H67.472V589.01H76.012V589.626Z" fill="#222222"/>
<rect x="93" y="568" width="322" height="40" fill="#4BBC37"/>
<path d="M368.8 587.824C367.733 587.269 367.2 586.411 367.2 585.248C367.2 584.672 367.344 584.149 367.632 583.68C367.931 583.2 368.373 582.821 368.96 582.544C369.557 582.256 370.283 582.112 371.136 582.112C371.989 582.112 372.709 582.256 373.296 582.544C373.893 582.821 374.336 583.2 374.624 583.68C374.923 584.149 375.072 584.672 375.072 585.248C375.072 585.835 374.928 586.352 374.64 586.8C374.352 587.237 373.968 587.579 373.488 587.824C374.075 588.08 374.533 588.453 374.864 588.944C375.195 589.435 375.36 590.016 375.36 590.688C375.36 591.413 375.173 592.048 374.8 592.592C374.437 593.125 373.936 593.536 373.296 593.824C372.656 594.112 371.936 594.256 371.136 594.256C370.336 594.256 369.616 594.112 368.976 593.824C368.347 593.536 367.845 593.125 367.472 592.592C367.109 592.048 366.928 591.413 366.928 590.688C366.928 590.016 367.093 589.435 367.424 588.944C367.755 588.443 368.213 588.069 368.8 587.824ZM372.896 585.568C372.896 585.045 372.736 584.64 372.416 584.352C372.107 584.064 371.68 583.92 371.136 583.92C370.603 583.92 370.176 584.064 369.856 584.352C369.547 584.64 369.392 585.051 369.392 585.584C369.392 586.064 369.552 586.448 369.872 586.736C370.203 587.024 370.624 587.168 371.136 587.168C371.648 587.168 372.069 587.024 372.4 586.736C372.731 586.437 372.896 586.048 372.896 585.568ZM371.136 588.8C370.528 588.8 370.032 588.955 369.648 589.264C369.275 589.573 369.088 590.016 369.088 590.592C369.088 591.125 369.269 591.563 369.632 591.904C370.005 592.235 370.507 592.4 371.136 592.4C371.765 592.4 372.261 592.229 372.624 591.888C372.987 591.547 373.168 591.115 373.168 590.592C373.168 590.027 372.981 589.589 372.608 589.28C372.235 588.96 371.744 588.8 371.136 588.8ZM377.833 591.728V589.968L383.065 582.48H385.673V589.776H387.081V591.728H385.673V594H383.433V591.728H377.833ZM383.577 584.88L380.297 589.776H383.577V584.88ZM389.035 584.4V582.336H392.891V594H390.587V584.4H389.035Z" fill="white"/>
</svg>
