<svg width="1547" height="340" viewBox="0 0 1547 340" fill="none" xmlns="http://www.w3.org/2000/svg">
<path d="M256.45 0.749982V244H216.55V77.4L142.35 244H114.7L40.15 77.4V244H0.250001V0.749982H43.3L128.7 191.5L213.75 0.749982H256.45ZM485.643 142.85C485.643 150.083 485.176 156.617 484.243 162.45H336.893C338.059 177.85 343.776 190.217 354.043 199.55C364.309 208.883 376.909 213.55 391.843 213.55C413.309 213.55 428.476 204.567 437.343 186.6H480.393C474.559 204.333 463.943 218.917 448.543 230.35C433.376 241.55 414.476 247.15 391.843 247.15C373.409 247.15 356.843 243.067 342.143 234.9C327.676 226.5 316.243 214.833 307.843 199.9C299.676 184.733 295.593 167.233 295.593 147.4C295.593 127.567 299.559 110.183 307.493 95.25C315.659 80.0833 326.976 68.4167 341.443 60.25C356.143 52.0833 372.943 48 391.843 48C410.043 48 426.259 51.9667 440.493 59.9C454.726 67.8333 465.809 79.0333 473.743 93.5C481.676 107.733 485.643 124.183 485.643 142.85ZM443.993 130.25C443.759 115.55 438.509 103.767 428.243 94.9C417.976 86.0333 405.259 81.6 390.093 81.6C376.326 81.6 364.543 86.0333 354.743 94.9C344.943 103.533 339.109 115.317 337.243 130.25H443.993ZM594.908 247.15C579.742 247.15 566.092 244.467 553.958 239.1C542.058 233.5 532.608 226.033 525.608 216.7C518.608 207.133 514.875 196.517 514.408 184.85H555.708C556.408 193.017 560.258 199.9 567.258 205.5C574.492 210.867 583.475 213.55 594.208 213.55C605.408 213.55 614.042 211.45 620.108 207.25C626.408 202.817 629.558 197.217 629.558 190.45C629.558 183.217 626.058 177.85 619.058 174.35C612.292 170.85 601.442 167 586.508 162.8C572.042 158.833 560.258 154.983 551.158 151.25C542.058 147.517 534.125 141.8 527.358 134.1C520.825 126.4 517.558 116.25 517.558 103.65C517.558 93.3833 520.592 84.05 526.658 75.65C532.725 67.0167 541.358 60.25 552.558 55.35C563.992 50.45 577.058 48 591.758 48C613.692 48 631.308 53.6 644.608 64.8C658.142 75.7667 665.375 90.8167 666.308 109.95H626.408C625.708 101.317 622.208 94.4333 615.908 89.3C609.608 84.1667 601.092 81.6 590.358 81.6C579.858 81.6 571.808 83.5833 566.208 87.55C560.608 91.5167 557.808 96.7667 557.808 103.3C557.808 108.433 559.675 112.75 563.408 116.25C567.142 119.75 571.692 122.55 577.058 124.65C582.425 126.517 590.358 128.967 600.858 132C614.858 135.733 626.292 139.583 635.158 143.55C644.258 147.283 652.075 152.883 658.608 160.35C665.142 167.817 668.525 177.733 668.758 190.1C668.758 201.067 665.725 210.867 659.658 219.5C653.592 228.133 644.958 234.9 633.758 239.8C622.792 244.7 609.842 247.15 594.908 247.15ZM781.871 247.15C766.704 247.15 753.054 244.467 740.921 239.1C729.021 233.5 719.571 226.033 712.571 216.7C705.571 207.133 701.838 196.517 701.371 184.85H742.671C743.371 193.017 747.221 199.9 754.221 205.5C761.454 210.867 770.438 213.55 781.171 213.55C792.371 213.55 801.004 211.45 807.071 207.25C813.371 202.817 816.521 197.217 816.521 190.45C816.521 183.217 813.021 177.85 806.021 174.35C799.254 170.85 788.404 167 773.471 162.8C759.004 158.833 747.221 154.983 738.121 151.25C729.021 147.517 721.088 141.8 714.321 134.1C707.788 126.4 704.521 116.25 704.521 103.65C704.521 93.3833 707.554 84.05 713.621 75.65C719.688 67.0167 728.321 60.25 739.521 55.35C750.954 50.45 764.021 48 778.721 48C800.654 48 818.271 53.6 831.571 64.8C845.104 75.7667 852.338 90.8167 853.271 109.95H813.371C812.671 101.317 809.171 94.4333 802.871 89.3C796.571 84.1667 788.054 81.6 777.321 81.6C766.821 81.6 758.771 83.5833 753.171 87.55C747.571 91.5167 744.771 96.7667 744.771 103.3C744.771 108.433 746.638 112.75 750.371 116.25C754.104 119.75 758.654 122.55 764.021 124.65C769.388 126.517 777.321 128.967 787.821 132C801.821 135.733 813.254 139.583 822.121 143.55C831.221 147.283 839.038 152.883 845.571 160.35C852.104 167.817 855.488 177.733 855.721 190.1C855.721 201.067 852.688 210.867 846.621 219.5C840.554 228.133 831.921 234.9 820.721 239.8C809.754 244.7 796.804 247.15 781.871 247.15ZM885.534 146.7C885.534 127.333 889.501 110.183 897.434 95.25C905.601 80.3167 916.567 68.7667 930.334 60.6C944.334 52.2 959.734 48 976.534 48C991.701 48 1004.88 51.0333 1016.08 57.1C1027.52 62.9333 1036.62 70.2833 1043.38 79.15V51.15H1083.63V244H1043.38V215.3C1036.62 224.4 1027.4 231.983 1015.73 238.05C1004.07 244.117 990.767 247.15 975.834 247.15C959.267 247.15 944.101 242.95 930.334 234.55C916.567 225.917 905.601 214.017 897.434 198.85C889.501 183.45 885.534 166.067 885.534 146.7ZM1043.38 147.4C1043.38 134.1 1040.58 122.55 1034.98 112.75C1029.62 102.95 1022.5 95.4833 1013.63 90.35C1004.77 85.2167 995.201 82.65 984.934 82.65C974.667 82.65 965.101 85.2167 956.234 90.35C947.367 95.25 940.134 102.6 934.534 112.4C929.167 121.967 926.484 133.4 926.484 146.7C926.484 160 929.167 171.667 934.534 181.7C940.134 191.733 947.367 199.433 956.234 204.8C965.334 209.933 974.901 212.5 984.934 212.5C995.201 212.5 1004.77 209.933 1013.63 204.8C1022.5 199.667 1029.62 192.2 1034.98 182.4C1040.58 172.367 1043.38 160.7 1043.38 147.4ZM1213.74 48C1228.67 48 1241.86 51.0333 1253.29 57.1C1264.96 62.9333 1274.06 70.2833 1280.59 79.15V51.15H1320.84V247.15C1320.84 264.883 1317.11 280.633 1309.64 294.4C1302.17 308.4 1291.32 319.367 1277.09 327.3C1263.09 335.233 1246.29 339.2 1226.69 339.2C1200.56 339.2 1178.86 333.017 1161.59 320.65C1144.32 308.517 1134.52 291.95 1132.19 270.95H1171.74C1174.77 280.983 1181.19 289.033 1190.99 295.1C1201.02 301.4 1212.92 304.55 1226.69 304.55C1242.79 304.55 1255.74 299.65 1265.54 289.85C1275.57 280.05 1280.59 265.817 1280.59 247.15V214.95C1273.82 224.05 1264.61 231.75 1252.94 238.05C1241.51 244.117 1228.44 247.15 1213.74 247.15C1196.94 247.15 1181.54 242.95 1167.54 234.55C1153.77 225.917 1142.81 214.017 1134.64 198.85C1126.71 183.45 1122.74 166.067 1122.74 146.7C1122.74 127.333 1126.71 110.183 1134.64 95.25C1142.81 80.3167 1153.77 68.7667 1167.54 60.6C1181.54 52.2 1196.94 48 1213.74 48ZM1280.59 147.4C1280.59 134.1 1277.79 122.55 1272.19 112.75C1266.82 102.95 1259.71 95.4833 1250.84 90.35C1241.97 85.2167 1232.41 82.65 1222.14 82.65C1211.87 82.65 1202.31 85.2167 1193.44 90.35C1184.57 95.25 1177.34 102.6 1171.74 112.4C1166.37 121.967 1163.69 133.4 1163.69 146.7C1163.69 160 1166.37 171.667 1171.74 181.7C1177.34 191.733 1184.57 199.433 1193.44 204.8C1202.54 209.933 1212.11 212.5 1222.14 212.5C1232.41 212.5 1241.97 209.933 1250.84 204.8C1259.71 199.667 1266.82 192.2 1272.19 182.4C1277.79 172.367 1280.59 160.7 1280.59 147.4ZM1550 142.85C1550 150.083 1549.53 156.617 1548.6 162.45H1401.25C1402.41 177.85 1408.13 190.217 1418.4 199.55C1428.66 208.883 1441.26 213.55 1456.2 213.55C1477.66 213.55 1492.83 204.567 1501.7 186.6H1544.75C1538.91 204.333 1528.3 218.917 1512.9 230.35C1497.73 241.55 1478.83 247.15 1456.2 247.15C1437.76 247.15 1421.2 243.067 1406.5 234.9C1392.03 226.5 1380.6 214.833 1372.2 199.9C1364.03 184.733 1359.95 167.233 1359.95 147.4C1359.95 127.567 1363.91 110.183 1371.85 95.25C1380.01 80.0833 1391.33 68.4167 1405.8 60.25C1420.5 52.0833 1437.3 48 1456.2 48C1474.4 48 1490.61 51.9667 1504.85 59.9C1519.08 67.8333 1530.16 79.0333 1538.1 93.5C1546.03 107.733 1550 124.183 1550 142.85ZM1508.35 130.25C1508.11 115.55 1502.86 103.767 1492.6 94.9C1482.33 86.0333 1469.61 81.6 1454.45 81.6C1440.68 81.6 1428.9 86.0333 1419.1 94.9C1409.3 103.533 1403.46 115.317 1401.6 130.25H1508.35Z" fill="url(#paint0_linear_4454_1566)"/>
<defs>
<linearGradient id="paint0_linear_4454_1566" x1="-26" y1="122" x2="1564" y2="122" gradientUnits="userSpaceOnUse">
<stop stop-color="#F5F5F5" stop-opacity="0.5"/>
<stop offset="1" stop-color="#F5F5F5"/>
</linearGradient>
</defs>
</svg>
